<svg id="图层_1" data-name="图层 1" xmlns="http://www.w3.org/2000/svg" xmlns:xlink="http://www.w3.org/1999/xlink" viewBox="0 0 180.36 103.21"><defs><style>.cls-1{fill:none;}.cls-2{font-size:17.77px;font-family:Dodger;}.cls-2,.cls-4{fill:#19499d;}.cls-3{clip-path:url(#clip-path);}</style><clipPath id="clip-path" transform="translate(-19.1 -65.35)"><rect class="cls-1" width="226.77" height="226.77"/></clipPath></defs><text class="cls-2" transform="translate(62.17 61.84) scale(1 1.23)">MSTl</text><g class="cls-3"><path class="cls-4" d="M148.58,76.65c-7.66-6.18-17.47-10.48-30.25-11.3H114.1c-15,1-26.23,6.75-34.51,15a51.33,51.33,0,0,0-14.91,30.78C34.09,131.81,19.1,152.92,19.1,152.92a264.37,264.37,0,0,1,45.23-36.8v3.07c1,15.24,7.09,26.1,15.26,34.27s19.23,14.13,34.51,15.11h4.23c15.27-1,26.32-6.92,34.5-15.11s14.3-19.06,15.26-34.35v-4.3c-.87-14-6-24.21-13.15-32.11,11.94-1.35,20.05-1,22.67-.57C189.87,84,193.18,93,192,99.42c-2.75,14.82-24.22,31.35-24.22,31.35,48.43-28.73,40.86-64.53-19.18-54.12m-4.61.87q-4.74,1-9.88,2.3a80.48,80.48,0,0,0-7.39-9.77A45.48,45.48,0,0,1,144,77.52m-8.82,11a62.67,62.67,0,0,1-17.22,2.34v-.11c5.64-1.79,11-3.24,16-4.41.4.72.8,1.45,1.17,2.18M118,68.88c.85.16,2-.14,2.9.15.56.19,1.51,1.46,2.11,2.11a81.12,81.12,0,0,1,7.54,9.64c-4.34,1.2-8.55,2.51-12.63,3.9V69.11c0-.11,0-.22.08-.23M112,69a12.5,12.5,0,0,1,2.5-.15v17q-5,1.8-9.73,3.76c-2.31-.44-4.52-1-6.7-1.53a73.17,73.17,0,0,1,11.81-17.05c.6-.64,1.53-1.83,2.12-2M99.31,92c-1.35.6-2.67,1.21-4,1.82.37-.89.76-1.75,1.16-2.55.93.26,1.87.5,2.82.73M83.58,81.47A48.18,48.18,0,0,1,106,69.89a.75.75,0,0,0,.24-.08c.07,0,.06.1.08.16A78.5,78.5,0,0,0,94.62,87a96.51,96.51,0,0,1-12-4.54c-.08-.38.56-.67.94-1M79.9,85.15a135.66,135.66,0,0,0,13.15,5c-.74,1.85-1.48,3.78-2.18,5.78a226.73,226.73,0,0,0-22.39,12.71A48.3,48.3,0,0,1,79.9,85.15m3.68,67.22A50.66,50.66,0,0,1,93.75,146a113,113,0,0,0,10.88,17.76,46.15,46.15,0,0,1-21-11.34M114.49,165c-1.33-.26-3.09.18-4.38-.31-.53-.2-1.42-1.58-2-2.27A100.6,100.6,0,0,1,97,144.62a47.36,47.36,0,0,1,17.53-3.21Zm3.44,0V141.73c0-.12,0-.23.08-.24a61.22,61.22,0,0,1,17.53,3.68,88.31,88.31,0,0,1-12.68,19.48,42.11,42.11,0,0,1-4.93.39m10.33-1.4c3.73-5.18,7.65-10.83,10.49-17.14A68.73,68.73,0,0,1,149.31,152a47.52,47.52,0,0,1-21.05,11.66m23.48-14.09a66,66,0,0,0-11.5-6.26,72.73,72.73,0,0,0,4.07-13h-3.54A66,66,0,0,1,137,142a68,68,0,0,0-19.1-4.07v-7.66h-3.44v7.58a54.86,54.86,0,0,0-18.93,3.52,70.33,70.33,0,0,1-3.47-11.1H88.56a59.9,59.9,0,0,0,3.86,12.36A54.14,54.14,0,0,0,81.08,150c-7.27-7.84-13.25-18.38-13.3-33,0-1.06,0-2.08.09-3.1A236.52,236.52,0,0,1,89,102.34a57.4,57.4,0,0,0-1.64,10.07h3.52a62,62,0,0,1,1.59-9.73c.2-.77.4-1.52.61-2.27,5.48-2.51,10.82-4.7,16-6.59,1.77.22,3.59.39,5.48.49v18.1h3.44v-18c6.82-.3,12.86-.78,18.24-2.5.07,0,.24-.11.31-.08.52.26.88,1.65,1.25,2.58a59.57,59.57,0,0,1,4.29,18h3.52A66,66,0,0,0,140,90.86a128.43,128.43,0,0,0,13-5.08h.16c6.2,7.68,11.45,17.47,11.5,31.14,0,14.62-6,24.93-12.91,32.63M138.59,87.66q-.54-1.06-1.11-2.1c4.47-1,8.65-1.68,12.51-2.23a115.55,115.55,0,0,1-11.4,4.33" transform="translate(-19.1 -65.35)"/></g></svg>